<svg width="343" height="56" viewBox="0 0 343 56" fill="none" xmlns="http://www.w3.org/2000/svg">
<rect width="343" height="56" rx="15" fill="#0766AD"/>
<path d="M139.107 25.0352C139.05 24.5079 138.813 24.0974 138.394 23.8036C137.98 23.5098 137.44 23.3629 136.776 23.3629C136.309 23.3629 135.909 23.4334 135.575 23.5742C135.241 23.7151 134.985 23.9062 134.808 24.1477C134.631 24.3892 134.541 24.6649 134.537 24.9748C134.537 25.2324 134.595 25.4557 134.712 25.6449C134.832 25.834 134.995 25.995 135.201 26.1278C135.406 26.2566 135.633 26.3653 135.883 26.4538C136.132 26.5424 136.384 26.6168 136.637 26.6772L137.797 26.967C138.263 27.0756 138.712 27.2225 139.143 27.4077C139.577 27.5928 139.966 27.8262 140.308 28.108C140.654 28.3897 140.928 28.7298 141.129 29.1282C141.33 29.5266 141.431 29.9935 141.431 30.5288C141.431 31.2532 141.246 31.8911 140.875 32.4425C140.505 32.9898 139.97 33.4184 139.27 33.7283C138.573 34.0342 137.73 34.1871 136.74 34.1871C135.778 34.1871 134.943 34.0382 134.235 33.7404C133.53 33.4426 132.979 33.0079 132.581 32.4364C132.186 31.8649 131.973 31.1687 131.941 30.3477H134.144C134.176 30.7783 134.309 31.1365 134.543 31.4222C134.776 31.708 135.08 31.9213 135.454 32.0621C135.833 32.203 136.255 32.2734 136.722 32.2734C137.209 32.2734 137.636 32.201 138.002 32.0561C138.372 31.9072 138.662 31.7019 138.871 31.4403C139.08 31.1747 139.187 30.8648 139.191 30.5107C139.187 30.1887 139.093 29.9231 138.907 29.7138C138.722 29.5005 138.463 29.3234 138.129 29.1825C137.799 29.0376 137.412 28.9089 136.97 28.7962L135.563 28.4339C134.545 28.1723 133.74 27.7759 133.148 27.2447C132.561 26.7094 132.267 25.9991 132.267 25.1136C132.267 24.3852 132.464 23.7473 132.858 23.1999C133.257 22.6526 133.798 22.228 134.482 21.9261C135.166 21.6203 135.941 21.4673 136.807 21.4673C137.684 21.4673 138.453 21.6203 139.113 21.9261C139.777 22.228 140.298 22.6486 140.676 23.1879C141.055 23.7231 141.25 24.3389 141.262 25.0352H139.107ZM147.553 24.7273V26.4176H142.223V24.7273H147.553ZM143.539 22.5057H145.724V31.2109C145.724 31.5047 145.768 31.7301 145.857 31.8871C145.949 32.04 146.07 32.1446 146.219 32.201C146.368 32.2573 146.533 32.2855 146.714 32.2855C146.851 32.2855 146.976 32.2754 147.088 32.2553C147.205 32.2352 147.294 32.2171 147.354 32.201L147.722 33.9094C147.606 33.9497 147.439 33.994 147.221 34.0423C147.008 34.0906 146.746 34.1187 146.436 34.1268C145.889 34.1429 145.396 34.0604 144.957 33.8793C144.519 33.6941 144.171 33.4084 143.913 33.022C143.659 32.6357 143.535 32.1527 143.539 31.5732V22.5057ZM151.641 34.1871C151.054 34.1871 150.524 34.0825 150.054 33.8732C149.587 33.6599 149.216 33.346 148.943 32.9315C148.673 32.5169 148.538 32.0058 148.538 31.3981C148.538 30.8749 148.635 30.4422 148.828 30.1001C149.021 29.758 149.285 29.4844 149.619 29.2791C149.953 29.0739 150.329 28.9189 150.748 28.8143C151.17 28.7056 151.607 28.6271 152.058 28.5788C152.601 28.5225 153.042 28.4722 153.38 28.4279C153.718 28.3796 153.963 28.3072 154.116 28.2106C154.273 28.11 154.352 27.955 154.352 27.7457V27.7095C154.352 27.2547 154.217 26.9026 153.947 26.6531C153.678 26.4035 153.289 26.2788 152.782 26.2788C152.247 26.2788 151.822 26.3955 151.508 26.6289C151.199 26.8623 150.989 27.138 150.881 27.456L148.84 27.1662C149.001 26.6027 149.267 26.1319 149.637 25.7536C150.007 25.3712 150.46 25.0855 150.995 24.8963C151.531 24.7031 152.122 24.6065 152.77 24.6065C153.217 24.6065 153.662 24.6589 154.104 24.7635C154.547 24.8681 154.952 25.0412 155.318 25.2827C155.684 25.5201 155.978 25.8441 156.199 26.2546C156.425 26.6651 156.537 27.1783 156.537 27.794V34H154.436V32.7262H154.364C154.231 32.9838 154.044 33.2253 153.802 33.4506C153.565 33.672 153.265 33.8511 152.903 33.9879C152.545 34.1207 152.124 34.1871 151.641 34.1871ZM152.209 32.5813C152.647 32.5813 153.028 32.4948 153.35 32.3217C153.672 32.1446 153.919 31.9112 154.092 31.6214C154.269 31.3317 154.358 31.0157 154.358 30.6737V29.581C154.289 29.6373 154.173 29.6896 154.008 29.7379C153.847 29.7862 153.666 29.8285 153.464 29.8647C153.263 29.9009 153.064 29.9331 152.867 29.9613C152.67 29.9895 152.499 30.0136 152.354 30.0337C152.028 30.078 151.736 30.1504 151.478 30.2511C151.221 30.3517 151.017 30.4925 150.869 30.6737C150.72 30.8507 150.645 31.0801 150.645 31.3619C150.645 31.7643 150.792 32.0682 151.086 32.2734C151.38 32.4787 151.754 32.5813 152.209 32.5813ZM158.327 34V24.7273H160.446V26.2727H160.542C160.711 25.7375 161.001 25.3249 161.412 25.0352C161.826 24.7414 162.299 24.5945 162.83 24.5945C162.951 24.5945 163.086 24.6005 163.235 24.6126C163.388 24.6206 163.514 24.6347 163.615 24.6548V26.6651C163.522 26.6329 163.376 26.6048 163.174 26.5806C162.977 26.5524 162.786 26.5384 162.601 26.5384C162.202 26.5384 161.844 26.6249 161.526 26.7979C161.212 26.967 160.965 27.2024 160.784 27.5043C160.603 27.8061 160.512 28.1542 160.512 28.5487V34H158.327ZM169.787 24.7273V26.4176H164.457V24.7273H169.787ZM165.773 22.5057H167.958V31.2109C167.958 31.5047 168.002 31.7301 168.091 31.8871C168.183 32.04 168.304 32.1446 168.453 32.201C168.602 32.2573 168.767 32.2855 168.948 32.2855C169.085 32.2855 169.21 32.2754 169.322 32.2553C169.439 32.2352 169.528 32.2171 169.588 32.201L169.956 33.9094C169.84 33.9497 169.673 33.994 169.455 34.0423C169.242 34.0906 168.98 34.1187 168.67 34.1268C168.123 34.1429 167.63 34.0604 167.191 33.8793C166.753 33.6941 166.405 33.4084 166.147 33.022C165.893 32.6357 165.769 32.1527 165.773 31.5732V22.5057ZM175.112 34V21.6364H177.352V26.8704H183.081V21.6364H185.327V34H183.081V28.7479H177.352V34H175.112ZM191.363 34.1811C190.434 34.1811 189.631 33.9879 188.955 33.6016C188.282 33.2112 187.765 32.6598 187.403 31.9474C187.041 31.2311 186.86 30.3879 186.86 29.418C186.86 28.4641 187.041 27.627 187.403 26.9066C187.769 26.1822 188.28 25.6187 188.936 25.2163C189.592 24.8098 190.363 24.6065 191.249 24.6065C191.82 24.6065 192.359 24.6991 192.866 24.8842C193.378 25.0653 193.828 25.3471 194.219 25.7294C194.613 26.1117 194.923 26.5987 195.148 27.1903C195.374 27.7779 195.486 28.4782 195.486 29.2912V29.9613H187.886V28.4883H193.392C193.388 28.0697 193.297 27.6974 193.12 27.3714C192.943 27.0414 192.695 26.7818 192.377 26.5927C192.064 26.4035 191.697 26.3089 191.279 26.3089C190.832 26.3089 190.44 26.4176 190.102 26.6349C189.763 26.8482 189.5 27.13 189.311 27.4801C189.126 27.8262 189.031 28.2066 189.027 28.6211V29.907C189.027 30.4463 189.126 30.9091 189.323 31.2955C189.52 31.6778 189.796 31.9716 190.15 32.1768C190.504 32.3781 190.919 32.4787 191.393 32.4787C191.711 32.4787 191.999 32.4344 192.257 32.3459C192.514 32.2533 192.738 32.1185 192.927 31.9414C193.116 31.7643 193.259 31.545 193.355 31.2834L195.396 31.5128C195.267 32.0521 195.022 32.523 194.659 32.9254C194.301 33.3239 193.842 33.6338 193.283 33.8551C192.724 34.0724 192.084 34.1811 191.363 34.1811ZM196.927 34V24.7273H199.046V26.2727H199.143C199.312 25.7375 199.602 25.3249 200.012 25.0352C200.427 24.7414 200.9 24.5945 201.431 24.5945C201.552 24.5945 201.686 24.6005 201.835 24.6126C201.988 24.6206 202.115 24.6347 202.216 24.6548V26.6651C202.123 26.6329 201.976 26.6048 201.775 26.5806C201.578 26.5524 201.387 26.5384 201.201 26.5384C200.803 26.5384 200.445 26.6249 200.127 26.7979C199.813 26.967 199.565 27.2024 199.384 27.5043C199.203 27.8061 199.113 28.1542 199.113 28.5487V34H196.927ZM206.983 34.1811C206.053 34.1811 205.25 33.9879 204.574 33.6016C203.902 33.2112 203.385 32.6598 203.023 31.9474C202.66 31.2311 202.479 30.3879 202.479 29.418C202.479 28.4641 202.66 27.627 203.023 26.9066C203.389 26.1822 203.9 25.6187 204.556 25.2163C205.212 24.8098 205.983 24.6065 206.868 24.6065C207.44 24.6065 207.979 24.6991 208.486 24.8842C208.997 25.0653 209.448 25.3471 209.838 25.7294C210.233 26.1117 210.543 26.5987 210.768 27.1903C210.993 27.7779 211.106 28.4782 211.106 29.2912V29.9613H203.506V28.4883H209.011C209.007 28.0697 208.917 27.6974 208.74 27.3714C208.562 27.0414 208.315 26.7818 207.997 26.5927C207.683 26.4035 207.317 26.3089 206.898 26.3089C206.452 26.3089 206.059 26.4176 205.721 26.6349C205.383 26.8482 205.119 27.13 204.93 27.4801C204.745 27.8262 204.651 28.2066 204.647 28.6211V29.907C204.647 30.4463 204.745 30.9091 204.942 31.2955C205.14 31.6778 205.415 31.9716 205.769 32.1768C206.124 32.3781 206.538 32.4787 207.013 32.4787C207.331 32.4787 207.619 32.4344 207.876 32.3459C208.134 32.2533 208.357 32.1185 208.546 31.9414C208.736 31.7643 208.878 31.545 208.975 31.2834L211.015 31.5128C210.887 32.0521 210.641 32.523 210.279 32.9254C209.921 33.3239 209.462 33.6338 208.903 33.8551C208.343 34.0724 207.703 34.1811 206.983 34.1811Z" fill="white"/>
</svg>
