<svg width="343" height="20" viewBox="0 0 343 20" fill="none" xmlns="http://www.w3.org/2000/svg">
<path d="M40.0977 15H36.7312V4.09091H40.2469C41.3051 4.09091 42.2106 4.3093 42.9635 4.74609C43.7163 5.17933 44.2934 5.80256 44.6947 6.61577C45.0959 7.42543 45.2966 8.39489 45.2966 9.52415C45.2966 10.6605 45.0942 11.6388 44.6893 12.4592C44.2845 13.2759 43.695 13.9045 42.9209 14.3448C42.1467 14.7816 41.2057 15 40.0977 15ZM38.0523 13.8281H40.0125C40.9145 13.8281 41.662 13.6541 42.255 13.3061C42.8481 12.9581 43.2902 12.4627 43.5814 11.82C43.8726 11.1772 44.0182 10.4119 44.0182 9.52415C44.0182 8.64347 43.8744 7.8853 43.5867 7.24964C43.2991 6.61044 42.8694 6.12038 42.2976 5.77947C41.7259 5.43501 41.0139 5.26278 40.1616 5.26278H38.0523V13.8281ZM50.4259 15.1705C49.6873 15.1705 49.0392 14.9947 48.4817 14.6431C47.9277 14.2915 47.4944 13.7997 47.1819 13.1676C46.873 12.5355 46.7185 11.7969 46.7185 10.9517C46.7185 10.0994 46.873 9.35547 47.1819 8.71982C47.4944 8.08416 47.9277 7.59055 48.4817 7.23899C49.0392 6.88743 49.6873 6.71165 50.4259 6.71165C51.1645 6.71165 51.8108 6.88743 52.3648 7.23899C52.9224 7.59055 53.3556 8.08416 53.6645 8.71982C53.977 9.35547 54.1333 10.0994 54.1333 10.9517C54.1333 11.7969 53.977 12.5355 53.6645 13.1676C53.3556 13.7997 52.9224 14.2915 52.3648 14.6431C51.8108 14.9947 51.1645 15.1705 50.4259 15.1705ZM50.4259 14.0412C50.987 14.0412 51.4486 13.8974 51.8108 13.6097C52.1731 13.3221 52.4412 12.9439 52.6152 12.4751C52.7892 12.0064 52.8762 11.4986 52.8762 10.9517C52.8762 10.4048 52.7892 9.89524 52.6152 9.42294C52.4412 8.95064 52.1731 8.56889 51.8108 8.2777C51.4486 7.98651 50.987 7.84091 50.4259 7.84091C49.8648 7.84091 49.4032 7.98651 49.041 8.2777C48.6787 8.56889 48.4106 8.95064 48.2366 9.42294C48.0626 9.89524 47.9756 10.4048 47.9756 10.9517C47.9756 11.4986 48.0626 12.0064 48.2366 12.4751C48.4106 12.9439 48.6787 13.3221 49.041 13.6097C49.4032 13.8974 49.8648 14.0412 50.4259 14.0412ZM57.0693 10.0781V15H55.8122V6.81818H57.0267V8.09659H57.1333C57.325 7.68111 57.6162 7.3473 58.0068 7.09517C58.3975 6.83949 58.9017 6.71165 59.5196 6.71165C60.0736 6.71165 60.5583 6.82528 60.9738 7.05256C61.3893 7.27628 61.7124 7.61719 61.9433 8.07528C62.1741 8.52983 62.2895 9.10511 62.2895 9.80114V15H61.0324V9.88636C61.0324 9.24361 60.8655 8.7429 60.5317 8.38423C60.1979 8.02202 59.7398 7.84091 59.1574 7.84091C58.7561 7.84091 58.3975 7.92791 58.0814 8.10192C57.7689 8.27592 57.5221 8.52983 57.341 8.86364C57.1599 9.19744 57.0693 9.60227 57.0693 10.0781ZM65.4546 4.09091V5.04972C65.4546 5.34091 65.4013 5.65163 65.2948 5.98189C65.1918 6.30859 65.0391 6.62642 64.8367 6.93537C64.6378 7.24077 64.3964 7.5071 64.1123 7.73438L63.4305 7.1804C63.6542 6.8608 63.8477 6.52876 64.0111 6.1843C64.178 5.83629 64.2614 5.4652 64.2614 5.07102V4.09091H65.4546ZM70.6532 6.81818V7.88352H66.4131V6.81818H70.6532ZM67.6489 4.85795H68.906V12.6562C68.906 13.0114 68.9575 13.2777 69.0605 13.4553C69.167 13.6293 69.302 13.7464 69.4653 13.8068C69.6322 13.8636 69.808 13.892 69.9927 13.892C70.1311 13.892 70.2448 13.8849 70.3336 13.8707C70.4223 13.853 70.4934 13.8388 70.5466 13.8281L70.8023 14.9574C70.7171 14.9893 70.5981 15.0213 70.4454 15.0533C70.2927 15.0888 70.0992 15.1065 69.8648 15.1065C69.5097 15.1065 69.1617 15.0302 68.8208 14.8775C68.4834 14.7248 68.2029 14.4922 67.9792 14.1797C67.759 13.8672 67.6489 13.473 67.6489 12.9972V4.85795ZM77.54 10.0781V15H76.2829V4.09091H77.54V8.09659H77.6465C77.8383 7.67401 78.1259 7.33842 78.5095 7.08984C78.8965 6.83771 79.4114 6.71165 80.0542 6.71165C80.6117 6.71165 81.1 6.82351 81.519 7.04723C81.9381 7.2674 82.263 7.60653 82.4938 8.06463C82.7282 8.51918 82.8454 9.09801 82.8454 9.80114V15H81.5883V9.88636C81.5883 9.23651 81.4196 8.73402 81.0823 8.37891C80.7484 8.02024 80.285 7.84091 79.692 7.84091C79.2801 7.84091 78.9107 7.92791 78.584 8.10192C78.2609 8.27592 78.0052 8.52983 77.817 8.86364C77.6323 9.19744 77.54 9.60227 77.54 10.0781ZM87.3129 15.1918C86.7944 15.1918 86.3239 15.0941 85.9013 14.8988C85.4787 14.6999 85.1431 14.4141 84.8945 14.0412C84.646 13.6648 84.5217 13.2102 84.5217 12.6776C84.5217 12.2088 84.614 11.8288 84.7987 11.5376C84.9833 11.2429 85.2301 11.0121 85.5391 10.8452C85.848 10.6783 86.1889 10.554 86.5618 10.4723C86.9382 10.3871 87.3164 10.3196 87.6964 10.2699C88.1936 10.206 88.5966 10.158 88.9056 10.1261C89.2181 10.0906 89.4453 10.032 89.5874 9.95028C89.733 9.86861 89.8058 9.72656 89.8058 9.52415V9.48153C89.8058 8.95597 89.6619 8.54759 89.3743 8.25639C89.0902 7.9652 88.6588 7.8196 88.0799 7.8196C87.4798 7.8196 87.0092 7.95099 86.6683 8.21378C86.3274 8.47656 86.0877 8.7571 85.9492 9.0554L84.7561 8.62926C84.9691 8.1321 85.2532 7.74503 85.6083 7.46804C85.967 7.1875 86.3576 6.99219 86.7802 6.8821C87.2063 6.76847 87.6254 6.71165 88.0373 6.71165C88.3001 6.71165 88.6019 6.74361 88.9428 6.80753C89.2873 6.8679 89.6193 6.99396 89.9389 7.18572C90.2621 7.37749 90.5302 7.6669 90.7433 8.05398C90.9563 8.44105 91.0629 8.95952 91.0629 9.60938V15H89.8058V13.892H89.7418C89.6566 14.0696 89.5146 14.2596 89.3157 14.462C89.1168 14.6644 88.8523 14.8366 88.522 14.9787C88.1918 15.1207 87.7887 15.1918 87.3129 15.1918ZM87.5046 14.0625C88.0018 14.0625 88.4208 13.9648 88.7617 13.7695C89.1062 13.5742 89.3654 13.3221 89.5394 13.0131C89.717 12.7042 89.8058 12.3793 89.8058 12.0384V10.8878C89.7525 10.9517 89.6353 11.0103 89.4542 11.0636C89.2766 11.1133 89.0707 11.1577 88.8363 11.1967C88.6055 11.2322 88.38 11.2642 88.1598 11.2926C87.9432 11.3175 87.7674 11.3388 87.6325 11.3565C87.3058 11.3991 87.0004 11.4684 86.7163 11.5643C86.4357 11.6566 86.2085 11.7969 86.0345 11.9851C85.864 12.1697 85.7788 12.4219 85.7788 12.7415C85.7788 13.1783 85.9404 13.5085 86.2635 13.7322C86.5902 13.9524 87.0039 14.0625 87.5046 14.0625ZM99.5147 6.81818L96.4892 15H95.2107L92.1852 6.81818H93.5488L95.8073 13.3381H95.8926L98.1511 6.81818H99.5147ZM104.071 15.1705C103.283 15.1705 102.603 14.9964 102.031 14.6484C101.463 14.2969 101.025 13.8068 100.716 13.1783C100.41 12.5462 100.257 11.8111 100.257 10.973C100.257 10.1349 100.41 9.39631 100.716 8.7571C101.025 8.11435 101.454 7.61364 102.005 7.25497C102.559 6.89276 103.205 6.71165 103.944 6.71165C104.37 6.71165 104.791 6.78267 105.206 6.92472C105.621 7.06676 106 7.29759 106.341 7.61719C106.681 7.93324 106.953 8.35227 107.156 8.87429C107.358 9.39631 107.459 10.0391 107.459 10.8026V11.3352H101.152V10.2486H106.181C106.181 9.78693 106.088 9.375 105.904 9.01278C105.723 8.65057 105.463 8.3647 105.126 8.15518C104.792 7.94567 104.398 7.84091 103.944 7.84091C103.443 7.84091 103.01 7.9652 102.644 8.21378C102.282 8.45881 102.003 8.77841 101.808 9.17258C101.612 9.56676 101.515 9.98935 101.515 10.4403V11.1648C101.515 11.7827 101.621 12.3065 101.834 12.7362C102.051 13.1623 102.351 13.4872 102.734 13.7109C103.118 13.9311 103.564 14.0412 104.071 14.0412C104.402 14.0412 104.7 13.995 104.966 13.9027C105.236 13.8068 105.469 13.6648 105.664 13.4766C105.859 13.2848 106.01 13.0469 106.117 12.7628L107.331 13.1037C107.204 13.5156 106.989 13.8778 106.687 14.1903C106.385 14.4993 106.012 14.7408 105.568 14.9148C105.124 15.0852 104.625 15.1705 104.071 15.1705ZM115.518 15.1918C114.999 15.1918 114.529 15.0941 114.106 14.8988C113.684 14.6999 113.348 14.4141 113.1 14.0412C112.851 13.6648 112.727 13.2102 112.727 12.6776C112.727 12.2088 112.819 11.8288 113.004 11.5376C113.188 11.2429 113.435 11.0121 113.744 10.8452C114.053 10.6783 114.394 10.554 114.767 10.4723C115.143 10.3871 115.521 10.3196 115.901 10.2699C116.399 10.206 116.802 10.158 117.111 10.1261C117.423 10.0906 117.65 10.032 117.792 9.95028C117.938 9.86861 118.011 9.72656 118.011 9.52415V9.48153C118.011 8.95597 117.867 8.54759 117.579 8.25639C117.295 7.9652 116.864 7.8196 116.285 7.8196C115.685 7.8196 115.214 7.95099 114.873 8.21378C114.532 8.47656 114.293 8.7571 114.154 9.0554L112.961 8.62926C113.174 8.1321 113.458 7.74503 113.813 7.46804C114.172 7.1875 114.563 6.99219 114.985 6.8821C115.411 6.76847 115.83 6.71165 116.242 6.71165C116.505 6.71165 116.807 6.74361 117.148 6.80753C117.492 6.8679 117.824 6.99396 118.144 7.18572C118.467 7.37749 118.735 7.6669 118.948 8.05398C119.161 8.44105 119.268 8.95952 119.268 9.60938V15H118.011V13.892H117.947C117.862 14.0696 117.72 14.2596 117.521 14.462C117.322 14.6644 117.057 14.8366 116.727 14.9787C116.397 15.1207 115.994 15.1918 115.518 15.1918ZM115.71 14.0625C116.207 14.0625 116.626 13.9648 116.967 13.7695C117.311 13.5742 117.57 13.3221 117.744 13.0131C117.922 12.7042 118.011 12.3793 118.011 12.0384V10.8878C117.958 10.9517 117.84 11.0103 117.659 11.0636C117.482 11.1133 117.276 11.1577 117.041 11.1967C116.811 11.2322 116.585 11.2642 116.365 11.2926C116.148 11.3175 115.972 11.3388 115.838 11.3565C115.511 11.3991 115.205 11.4684 114.921 11.5643C114.641 11.6566 114.414 11.7969 114.24 11.9851C114.069 12.1697 113.984 12.4219 113.984 12.7415C113.984 13.1783 114.145 13.5085 114.469 13.7322C114.795 13.9524 115.209 14.0625 115.71 14.0625ZM122.579 10.0781V15H121.322V6.81818H122.537V8.09659H122.643C122.835 7.68111 123.126 7.3473 123.517 7.09517C123.908 6.83949 124.412 6.71165 125.03 6.71165C125.584 6.71165 126.068 6.82528 126.484 7.05256C126.899 7.27628 127.223 7.61719 127.453 8.07528C127.684 8.52983 127.8 9.10511 127.8 9.80114V15H126.543V9.88636C126.543 9.24361 126.376 8.7429 126.042 8.38423C125.708 8.02202 125.25 7.84091 124.668 7.84091C124.266 7.84091 123.908 7.92791 123.592 8.10192C123.279 8.27592 123.032 8.52983 122.851 8.86364C122.67 9.19744 122.579 9.60227 122.579 10.0781ZM136.243 15.1918C135.725 15.1918 135.254 15.0941 134.832 14.8988C134.409 14.6999 134.073 14.4141 133.825 14.0412C133.576 13.6648 133.452 13.2102 133.452 12.6776C133.452 12.2088 133.544 11.8288 133.729 11.5376C133.914 11.2429 134.16 11.0121 134.469 10.8452C134.778 10.6783 135.119 10.554 135.492 10.4723C135.869 10.3871 136.247 10.3196 136.627 10.2699C137.124 10.206 137.527 10.158 137.836 10.1261C138.148 10.0906 138.376 10.032 138.518 9.95028C138.663 9.86861 138.736 9.72656 138.736 9.52415V9.48153C138.736 8.95597 138.592 8.54759 138.305 8.25639C138.021 7.9652 137.589 7.8196 137.01 7.8196C136.41 7.8196 135.94 7.95099 135.599 8.21378C135.258 8.47656 135.018 8.7571 134.88 9.0554L133.686 8.62926C133.899 8.1321 134.184 7.74503 134.539 7.46804C134.897 7.1875 135.288 6.99219 135.711 6.8821C136.137 6.76847 136.556 6.71165 136.968 6.71165C137.23 6.71165 137.532 6.74361 137.873 6.80753C138.218 6.8679 138.55 6.99396 138.869 7.18572C139.192 7.37749 139.461 7.6669 139.674 8.05398C139.887 8.44105 139.993 8.95952 139.993 9.60938V15H138.736V13.892H138.672C138.587 14.0696 138.445 14.2596 138.246 14.462C138.047 14.6644 137.783 14.8366 137.452 14.9787C137.122 15.1207 136.719 15.1918 136.243 15.1918ZM136.435 14.0625C136.932 14.0625 137.351 13.9648 137.692 13.7695C138.037 13.5742 138.296 13.3221 138.47 13.0131C138.647 12.7042 138.736 12.3793 138.736 12.0384V10.8878C138.683 10.9517 138.566 11.0103 138.385 11.0636C138.207 11.1133 138.001 11.1577 137.767 11.1967C137.536 11.2322 137.31 11.2642 137.09 11.2926C136.874 11.3175 136.698 11.3388 136.563 11.3565C136.236 11.3991 135.931 11.4684 135.647 11.5643C135.366 11.6566 135.139 11.7969 134.965 11.9851C134.794 12.1697 134.709 12.4219 134.709 12.7415C134.709 13.1783 134.871 13.5085 135.194 13.7322C135.521 13.9524 135.934 14.0625 136.435 14.0625ZM145.372 15.1705C144.605 15.1705 143.944 14.9893 143.39 14.6271C142.836 14.2649 142.41 13.766 142.112 13.1303C141.813 12.4947 141.664 11.7685 141.664 10.9517C141.664 10.1207 141.817 9.38743 142.122 8.75178C142.431 8.11257 142.861 7.61364 143.411 7.25497C143.965 6.89276 144.612 6.71165 145.35 6.71165C145.926 6.71165 146.444 6.81818 146.906 7.03125C147.367 7.24432 147.745 7.54261 148.04 7.92614C148.335 8.30966 148.518 8.7571 148.589 9.26847H147.332C147.236 8.8956 147.023 8.56534 146.693 8.2777C146.366 7.98651 145.926 7.84091 145.372 7.84091C144.882 7.84091 144.452 7.96875 144.082 8.22443C143.717 8.47656 143.431 8.83345 143.225 9.2951C143.022 9.7532 142.921 10.2912 142.921 10.9091C142.921 11.5412 143.021 12.0916 143.22 12.5604C143.422 13.0291 143.706 13.3931 144.072 13.6523C144.441 13.9116 144.874 14.0412 145.372 14.0412C145.698 14.0412 145.995 13.9844 146.261 13.8707C146.527 13.7571 146.753 13.5938 146.938 13.3807C147.122 13.1676 147.254 12.9119 147.332 12.6136H148.589C148.518 13.0966 148.342 13.5316 148.062 13.9187C147.785 14.3022 147.417 14.6076 146.959 14.8349C146.504 15.0586 145.975 15.1705 145.372 15.1705ZM153.51 15.1705C152.743 15.1705 152.083 14.9893 151.529 14.6271C150.975 14.2649 150.549 13.766 150.251 13.1303C149.952 12.4947 149.803 11.7685 149.803 10.9517C149.803 10.1207 149.956 9.38743 150.261 8.75178C150.57 8.11257 151 7.61364 151.55 7.25497C152.104 6.89276 152.751 6.71165 153.489 6.71165C154.064 6.71165 154.583 6.81818 155.045 7.03125C155.506 7.24432 155.884 7.54261 156.179 7.92614C156.474 8.30966 156.657 8.7571 156.728 9.26847H155.471C155.375 8.8956 155.162 8.56534 154.831 8.2777C154.505 7.98651 154.064 7.84091 153.51 7.84091C153.02 7.84091 152.591 7.96875 152.221 8.22443C151.856 8.47656 151.57 8.83345 151.364 9.2951C151.161 9.7532 151.06 10.2912 151.06 10.9091C151.06 11.5412 151.16 12.0916 151.358 12.5604C151.561 13.0291 151.845 13.3931 152.211 13.6523C152.58 13.9116 153.013 14.0412 153.51 14.0412C153.837 14.0412 154.134 13.9844 154.4 13.8707C154.666 13.7571 154.892 13.5938 155.077 13.3807C155.261 13.1676 155.393 12.9119 155.471 12.6136H156.728C156.657 13.0966 156.481 13.5316 156.2 13.9187C155.923 14.3022 155.556 14.6076 155.098 14.8349C154.643 15.0586 154.114 15.1705 153.51 15.1705ZM161.649 15.1705C160.911 15.1705 160.263 14.9947 159.705 14.6431C159.151 14.2915 158.718 13.7997 158.405 13.1676C158.096 12.5355 157.942 11.7969 157.942 10.9517C157.942 10.0994 158.096 9.35547 158.405 8.71982C158.718 8.08416 159.151 7.59055 159.705 7.23899C160.263 6.88743 160.911 6.71165 161.649 6.71165C162.388 6.71165 163.034 6.88743 163.588 7.23899C164.146 7.59055 164.579 8.08416 164.888 8.71982C165.201 9.35547 165.357 10.0994 165.357 10.9517C165.357 11.7969 165.201 12.5355 164.888 13.1676C164.579 13.7997 164.146 14.2915 163.588 14.6431C163.034 14.9947 162.388 15.1705 161.649 15.1705ZM161.649 14.0412C162.21 14.0412 162.672 13.8974 163.034 13.6097C163.397 13.3221 163.665 12.9439 163.839 12.4751C164.013 12.0064 164.1 11.4986 164.1 10.9517C164.1 10.4048 164.013 9.89524 163.839 9.42294C163.665 8.95064 163.397 8.56889 163.034 8.2777C162.672 7.98651 162.21 7.84091 161.649 7.84091C161.088 7.84091 160.627 7.98651 160.264 8.2777C159.902 8.56889 159.634 8.95064 159.46 9.42294C159.286 9.89524 159.199 10.4048 159.199 10.9517C159.199 11.4986 159.286 12.0064 159.46 12.4751C159.634 12.9439 159.902 13.3221 160.264 13.6097C160.627 13.8974 161.088 14.0412 161.649 14.0412ZM172.192 11.6548V6.81818H173.449V15H172.192V13.6151H172.107C171.915 14.0305 171.617 14.3839 171.212 14.6751C170.807 14.9627 170.296 15.1065 169.678 15.1065C169.166 15.1065 168.712 14.9947 168.314 14.771C167.916 14.5437 167.604 14.2028 167.377 13.7482C167.149 13.2901 167.036 12.7131 167.036 12.017V6.81818H168.293V11.9318C168.293 12.5284 168.46 13.0043 168.794 13.3594C169.131 13.7145 169.561 13.892 170.083 13.892C170.395 13.892 170.713 13.8121 171.036 13.6523C171.363 13.4925 171.636 13.2475 171.856 12.9173C172.08 12.587 172.192 12.1662 172.192 11.6548ZM176.769 10.0781V15H175.512V6.81818H176.726V8.09659H176.833C177.024 7.68111 177.316 7.3473 177.706 7.09517C178.097 6.83949 178.601 6.71165 179.219 6.71165C179.773 6.71165 180.258 6.82528 180.673 7.05256C181.089 7.27628 181.412 7.61719 181.643 8.07528C181.873 8.52983 181.989 9.10511 181.989 9.80114V15H180.732V9.88636C180.732 9.24361 180.565 8.7429 180.231 8.38423C179.897 8.02202 179.439 7.84091 178.857 7.84091C178.455 7.84091 178.097 7.92791 177.781 8.10192C177.468 8.27592 177.221 8.52983 177.04 8.86364C176.859 9.19744 176.769 9.60227 176.769 10.0781ZM187.604 6.81818V7.88352H183.364V6.81818H187.604ZM184.6 4.85795H185.857V12.6562C185.857 13.0114 185.909 13.2777 186.011 13.4553C186.118 13.6293 186.253 13.7464 186.416 13.8068C186.583 13.8636 186.759 13.892 186.944 13.892C187.082 13.892 187.196 13.8849 187.285 13.8707C187.373 13.853 187.444 13.8388 187.498 13.8281L187.753 14.9574C187.668 14.9893 187.549 15.0213 187.396 15.0533C187.244 15.0888 187.05 15.1065 186.816 15.1065C186.461 15.1065 186.113 15.0302 185.772 14.8775C185.434 14.7248 185.154 14.4922 184.93 14.1797C184.71 13.8672 184.6 13.473 184.6 12.9972V4.85795ZM190.896 11.9318V11.8679C190.903 11.1896 190.974 10.6499 191.109 10.2486C191.244 9.8473 191.436 9.52237 191.684 9.27379C191.933 9.02521 192.231 8.79616 192.579 8.58665C192.789 8.45881 192.977 8.30788 193.144 8.13388C193.311 7.95632 193.442 7.75213 193.538 7.52131C193.637 7.29048 193.687 7.0348 193.687 6.75426C193.687 6.40625 193.605 6.1044 193.442 5.84872C193.279 5.59304 193.06 5.39595 192.787 5.25746C192.513 5.11896 192.21 5.04972 191.876 5.04972C191.585 5.04972 191.304 5.11008 191.034 5.23082C190.764 5.35156 190.539 5.54155 190.358 5.80078C190.177 6.06001 190.072 6.39915 190.044 6.81818H188.701C188.73 6.21449 188.886 5.6978 189.17 5.26811C189.458 4.83842 189.836 4.50994 190.305 4.28267C190.777 4.0554 191.301 3.94176 191.876 3.94176C192.501 3.94176 193.044 4.06605 193.506 4.31463C193.971 4.56321 194.33 4.90412 194.582 5.33736C194.838 5.7706 194.965 6.2642 194.965 6.81818C194.965 7.20881 194.905 7.56214 194.784 7.8782C194.667 8.19425 194.497 8.47656 194.273 8.72514C194.053 8.97372 193.786 9.19389 193.474 9.38565C193.161 9.58097 192.911 9.78693 192.723 10.0036C192.535 10.2166 192.398 10.4705 192.313 10.7653C192.227 11.06 192.181 11.4276 192.174 11.8679V11.9318H190.896ZM191.578 15.0852C191.315 15.0852 191.089 14.9911 190.901 14.8029C190.713 14.6147 190.619 14.3892 190.619 14.1264C190.619 13.8636 190.713 13.6381 190.901 13.4499C191.089 13.2617 191.315 13.1676 191.578 13.1676C191.84 13.1676 192.066 13.2617 192.254 13.4499C192.442 13.6381 192.536 13.8636 192.536 14.1264C192.536 14.3004 192.492 14.4602 192.403 14.6058C192.318 14.7514 192.203 14.8686 192.057 14.9574C191.915 15.0426 191.755 15.0852 191.578 15.0852Z" fill="#9CA5BF"/>
<path d="M209.86 7.77166H207.867C207.811 7.44496 207.706 7.15554 207.553 6.90341C207.4 6.64773 207.21 6.43111 206.983 6.25355C206.756 6.07599 206.497 5.94283 206.205 5.85405C205.918 5.76172 205.607 5.71555 205.273 5.71555C204.68 5.71555 204.155 5.8647 203.697 6.163C203.238 6.45774 202.88 6.89098 202.621 7.46271C202.361 8.03089 202.232 8.72514 202.232 9.54545C202.232 10.38 202.361 11.0831 202.621 11.6548C202.883 12.223 203.242 12.6527 203.697 12.9439C204.155 13.2315 204.678 13.3754 205.268 13.3754C205.595 13.3754 205.9 13.3327 206.184 13.2475C206.472 13.1587 206.729 13.0291 206.957 12.8587C207.187 12.6882 207.381 12.4787 207.537 12.2301C207.697 11.9815 207.807 11.6974 207.867 11.3778L209.86 11.3885C209.785 11.907 209.623 12.3935 209.375 12.848C209.13 13.3026 208.808 13.7038 208.411 14.0518C208.013 14.3963 207.548 14.6662 207.015 14.8615C206.482 15.0533 205.891 15.1491 205.241 15.1491C204.283 15.1491 203.427 14.9272 202.674 14.4833C201.921 14.0394 201.328 13.3984 200.895 12.5604C200.462 11.7223 200.245 10.7173 200.245 9.54545C200.245 8.37003 200.463 7.36506 200.9 6.53054C201.337 5.69247 201.932 5.05149 202.685 4.6076C203.437 4.16371 204.29 3.94176 205.241 3.94176C205.849 3.94176 206.413 4.02699 206.935 4.19744C207.457 4.3679 207.922 4.61825 208.331 4.94851C208.739 5.27521 209.075 5.67649 209.338 6.15234C209.604 6.62464 209.778 7.16442 209.86 7.77166ZM211.344 15V6.81818H213.214V8.18182H213.299C213.448 7.70952 213.704 7.34553 214.066 7.08984C214.432 6.83061 214.849 6.70099 215.318 6.70099C215.424 6.70099 215.543 6.70632 215.675 6.71697C215.81 6.72408 215.922 6.73651 216.01 6.75426V8.52805C215.929 8.49964 215.799 8.47479 215.621 8.45348C215.447 8.42862 215.279 8.41619 215.115 8.41619C214.764 8.41619 214.448 8.49254 214.167 8.64524C213.89 8.79439 213.672 9.00213 213.512 9.26847C213.352 9.5348 213.272 9.84197 213.272 10.19V15H211.344ZM220.337 15.1598C219.516 15.1598 218.808 14.9893 218.211 14.6484C217.618 14.304 217.162 13.8175 216.842 13.1889C216.523 12.5568 216.363 11.8129 216.363 10.957C216.363 10.1154 216.523 9.37678 216.842 8.74112C217.165 8.10192 217.616 7.60476 218.195 7.24964C218.774 6.89098 219.454 6.71165 220.235 6.71165C220.74 6.71165 221.216 6.79332 221.663 6.95668C222.114 7.11648 222.512 7.36506 222.856 7.70241C223.204 8.03977 223.478 8.46946 223.676 8.99148C223.875 9.50994 223.975 10.1278 223.975 10.8452V11.4364H217.268V10.1367H222.126C222.123 9.7674 222.043 9.43892 221.887 9.15128C221.73 8.86009 221.512 8.63104 221.232 8.46413C220.955 8.29723 220.631 8.21378 220.262 8.21378C219.868 8.21378 219.522 8.30966 219.223 8.50142C218.925 8.68963 218.692 8.93821 218.526 9.24716C218.362 9.55256 218.279 9.88814 218.275 10.2539V11.3885C218.275 11.8643 218.362 12.2727 218.536 12.6136C218.71 12.951 218.953 13.2102 219.266 13.3913C219.578 13.5689 219.944 13.6577 220.363 13.6577C220.644 13.6577 220.898 13.6186 221.125 13.5405C221.352 13.4588 221.549 13.3398 221.716 13.1836C221.883 13.0273 222.009 12.8338 222.094 12.603L223.895 12.8054C223.781 13.2812 223.565 13.6967 223.245 14.0518C222.929 14.4034 222.524 14.6768 222.031 14.8722C221.537 15.0639 220.972 15.1598 220.337 15.1598ZM227.72 15.1651C227.202 15.1651 226.735 15.0728 226.32 14.8881C225.908 14.6999 225.581 14.4229 225.339 14.0572C225.101 13.6914 224.983 13.2404 224.983 12.7042C224.983 12.2425 225.068 11.8608 225.238 11.5589C225.409 11.2571 225.641 11.0156 225.936 10.8345C226.231 10.6534 226.563 10.5167 226.932 10.4244C227.305 10.3285 227.69 10.2592 228.088 10.2166C228.567 10.1669 228.956 10.1225 229.255 10.0835C229.553 10.0408 229.769 9.97692 229.904 9.89169C230.043 9.80291 230.112 9.66619 230.112 9.48153V9.44957C230.112 9.0483 229.993 8.73757 229.755 8.5174C229.517 8.29723 229.175 8.18714 228.727 8.18714C228.255 8.18714 227.88 8.29013 227.603 8.49609C227.33 8.70206 227.145 8.94531 227.049 9.22585L225.249 8.97017C225.391 8.47301 225.625 8.05753 225.952 7.72372C226.279 7.38636 226.678 7.13423 227.151 6.96733C227.623 6.79688 228.145 6.71165 228.717 6.71165C229.111 6.71165 229.503 6.75781 229.894 6.85014C230.284 6.94247 230.641 7.09517 230.964 7.30824C231.288 7.51776 231.547 7.80362 231.742 8.16584C231.941 8.52805 232.04 8.98082 232.04 9.52415V15H230.187V13.8761H230.123C230.006 14.1033 229.84 14.3164 229.627 14.5153C229.418 14.7106 229.153 14.8686 228.834 14.9893C228.518 15.1065 228.147 15.1651 227.72 15.1651ZM228.221 13.7482C228.608 13.7482 228.944 13.6719 229.228 13.5192C229.512 13.3629 229.73 13.157 229.883 12.9013C230.039 12.6456 230.117 12.3668 230.117 12.065V11.1009C230.057 11.1506 229.954 11.1967 229.809 11.2393C229.666 11.282 229.507 11.3192 229.329 11.3512C229.152 11.3832 228.976 11.4116 228.802 11.4364C228.628 11.4613 228.477 11.4826 228.349 11.5004C228.061 11.5394 227.804 11.6033 227.577 11.6921C227.349 11.7809 227.17 11.9052 227.039 12.065C226.907 12.2212 226.842 12.4237 226.842 12.6722C226.842 13.0273 226.971 13.2955 227.23 13.4766C227.49 13.6577 227.82 13.7482 228.221 13.7482ZM237.825 6.81818V8.30966H233.121V6.81818H237.825ZM234.283 4.85795H236.211V12.5391C236.211 12.7983 236.25 12.9972 236.328 13.1357C236.41 13.2706 236.516 13.3629 236.648 13.4126C236.779 13.4624 236.925 13.4872 237.085 13.4872C237.205 13.4872 237.315 13.4783 237.415 13.4606C237.518 13.4428 237.596 13.4268 237.649 13.4126L237.974 14.9201C237.871 14.9556 237.724 14.9947 237.532 15.0373C237.344 15.0799 237.113 15.1048 236.839 15.1119C236.357 15.1261 235.922 15.0533 235.534 14.8935C235.147 14.7301 234.84 14.478 234.613 14.1371C234.389 13.7962 234.279 13.37 234.283 12.8587V4.85795ZM242.732 15.1598C241.912 15.1598 241.203 14.9893 240.606 14.6484C240.013 14.304 239.557 13.8175 239.238 13.1889C238.918 12.5568 238.758 11.8129 238.758 10.957C238.758 10.1154 238.918 9.37678 239.238 8.74112C239.561 8.10192 240.012 7.60476 240.591 7.24964C241.169 6.89098 241.849 6.71165 242.631 6.71165C243.135 6.71165 243.611 6.79332 244.058 6.95668C244.509 7.11648 244.907 7.36506 245.251 7.70241C245.599 8.03977 245.873 8.46946 246.072 8.99148C246.271 9.50994 246.37 10.1278 246.37 10.8452V11.4364H239.664V10.1367H244.522C244.518 9.7674 244.438 9.43892 244.282 9.15128C244.126 8.86009 243.907 8.63104 243.627 8.46413C243.35 8.29723 243.027 8.21378 242.657 8.21378C242.263 8.21378 241.917 8.30966 241.619 8.50142C241.32 8.68963 241.088 8.93821 240.921 9.24716C240.757 9.55256 240.674 9.88814 240.67 10.2539V11.3885C240.67 11.8643 240.757 12.2727 240.931 12.6136C241.105 12.951 241.349 13.2102 241.661 13.3913C241.974 13.5689 242.339 13.6577 242.758 13.6577C243.039 13.6577 243.293 13.6186 243.52 13.5405C243.747 13.4588 243.945 13.3398 244.111 13.1836C244.278 13.0273 244.404 12.8338 244.49 12.603L246.29 12.8054C246.176 13.2812 245.96 13.6967 245.64 14.0518C245.324 14.4034 244.919 14.6768 244.426 14.8722C243.932 15.0639 243.368 15.1598 242.732 15.1598ZM253.596 15.1651C253.078 15.1651 252.611 15.0728 252.195 14.8881C251.784 14.6999 251.457 14.4229 251.215 14.0572C250.977 13.6914 250.858 13.2404 250.858 12.7042C250.858 12.2425 250.944 11.8608 251.114 11.5589C251.285 11.2571 251.517 11.0156 251.812 10.8345C252.107 10.6534 252.439 10.5167 252.808 10.4244C253.181 10.3285 253.566 10.2592 253.964 10.2166C254.443 10.1669 254.832 10.1225 255.13 10.0835C255.429 10.0408 255.645 9.97692 255.78 9.89169C255.919 9.80291 255.988 9.66619 255.988 9.48153V9.44957C255.988 9.0483 255.869 8.73757 255.631 8.5174C255.393 8.29723 255.051 8.18714 254.603 8.18714C254.131 8.18714 253.756 8.29013 253.479 8.49609C253.206 8.70206 253.021 8.94531 252.925 9.22585L251.125 8.97017C251.267 8.47301 251.501 8.05753 251.828 7.72372C252.155 7.38636 252.554 7.13423 253.026 6.96733C253.499 6.79688 254.021 6.71165 254.593 6.71165C254.987 6.71165 255.379 6.75781 255.77 6.85014C256.16 6.94247 256.517 7.09517 256.84 7.30824C257.164 7.51776 257.423 7.80362 257.618 8.16584C257.817 8.52805 257.916 8.98082 257.916 9.52415V15H256.063V13.8761H255.999C255.882 14.1033 255.716 14.3164 255.503 14.5153C255.294 14.7106 255.029 14.8686 254.71 14.9893C254.394 15.1065 254.023 15.1651 253.596 15.1651ZM254.097 13.7482C254.484 13.7482 254.82 13.6719 255.104 13.5192C255.388 13.3629 255.606 13.157 255.759 12.9013C255.915 12.6456 255.993 12.3668 255.993 12.065V11.1009C255.933 11.1506 255.83 11.1967 255.684 11.2393C255.542 11.282 255.383 11.3192 255.205 11.3512C255.028 11.3832 254.852 11.4116 254.678 11.4364C254.504 11.4613 254.353 11.4826 254.225 11.5004C253.937 11.5394 253.68 11.6033 253.453 11.6921C253.225 11.7809 253.046 11.9052 252.915 12.065C252.783 12.2212 252.718 12.4237 252.718 12.6722C252.718 13.0273 252.847 13.2955 253.106 13.4766C253.366 13.6577 253.696 13.7482 254.097 13.7482ZM263.184 15.1598C262.367 15.1598 261.666 14.9805 261.08 14.6218C260.498 14.2631 260.049 13.7678 259.732 13.1357C259.42 12.5 259.264 11.7685 259.264 10.9411C259.264 10.1101 259.424 9.37678 259.743 8.74112C260.063 8.10192 260.514 7.60476 261.096 7.24964C261.682 6.89098 262.375 6.71165 263.174 6.71165C263.838 6.71165 264.425 6.83416 264.937 7.07919C265.452 7.32067 265.862 7.66335 266.167 8.10724C266.473 8.54759 266.647 9.0625 266.689 9.65199H264.846C264.772 9.25781 264.594 8.92933 264.313 8.66655C264.036 8.40021 263.665 8.26705 263.2 8.26705C262.806 8.26705 262.46 8.37358 262.161 8.58665C261.863 8.79616 261.631 9.09801 261.464 9.49219C261.3 9.88636 261.219 10.3587 261.219 10.9091C261.219 11.4666 261.3 11.946 261.464 12.3473C261.627 12.745 261.856 13.0522 262.151 13.2688C262.449 13.4819 262.799 13.5884 263.2 13.5884C263.484 13.5884 263.738 13.5352 263.962 13.4286C264.189 13.3185 264.379 13.1605 264.532 12.9545C264.685 12.7486 264.789 12.4982 264.846 12.2035H266.689C266.643 12.7823 266.473 13.2955 266.178 13.7429C265.883 14.1868 265.482 14.5348 264.974 14.7869C264.466 15.0355 263.87 15.1598 263.184 15.1598ZM271.601 15.1598C270.785 15.1598 270.083 14.9805 269.497 14.6218C268.915 14.2631 268.466 13.7678 268.15 13.1357C267.837 12.5 267.681 11.7685 267.681 10.9411C267.681 10.1101 267.841 9.37678 268.16 8.74112C268.48 8.10192 268.931 7.60476 269.513 7.24964C270.099 6.89098 270.792 6.71165 271.591 6.71165C272.255 6.71165 272.843 6.83416 273.354 7.07919C273.869 7.32067 274.279 7.66335 274.584 8.10724C274.89 8.54759 275.064 9.0625 275.106 9.65199H273.263C273.189 9.25781 273.011 8.92933 272.731 8.66655C272.454 8.40021 272.083 8.26705 271.617 8.26705C271.223 8.26705 270.877 8.37358 270.579 8.58665C270.28 8.79616 270.048 9.09801 269.881 9.49219C269.718 9.88636 269.636 10.3587 269.636 10.9091C269.636 11.4666 269.718 11.946 269.881 12.3473C270.044 12.745 270.273 13.0522 270.568 13.2688C270.866 13.4819 271.216 13.5884 271.617 13.5884C271.901 13.5884 272.155 13.5352 272.379 13.4286C272.606 13.3185 272.796 13.1605 272.949 12.9545C273.102 12.7486 273.207 12.4982 273.263 12.2035H275.106C275.06 12.7823 274.89 13.2955 274.595 13.7429C274.3 14.1868 273.899 14.5348 273.391 14.7869C272.883 15.0355 272.287 15.1598 271.601 15.1598ZM280.019 15.1598C279.22 15.1598 278.527 14.984 277.941 14.6325C277.355 14.2809 276.901 13.7891 276.578 13.157C276.258 12.5249 276.098 11.7862 276.098 10.9411C276.098 10.0959 276.258 9.35547 276.578 8.71982C276.901 8.08416 277.355 7.59055 277.941 7.23899C278.527 6.88743 279.22 6.71165 280.019 6.71165C280.818 6.71165 281.51 6.88743 282.096 7.23899C282.682 7.59055 283.135 8.08416 283.454 8.71982C283.778 9.35547 283.939 10.0959 283.939 10.9411C283.939 11.7862 283.778 12.5249 283.454 13.157C283.135 13.7891 282.682 14.2809 282.096 14.6325C281.51 14.984 280.818 15.1598 280.019 15.1598ZM280.029 13.6151C280.463 13.6151 280.825 13.4961 281.116 13.2582C281.407 13.0167 281.624 12.6935 281.766 12.2887C281.911 11.8839 281.984 11.4329 281.984 10.9357C281.984 10.435 281.911 9.98224 281.766 9.57741C281.624 9.16903 281.407 8.84411 281.116 8.60263C280.825 8.36115 280.463 8.24041 280.029 8.24041C279.585 8.24041 279.216 8.36115 278.921 8.60263C278.63 8.84411 278.412 9.16903 278.266 9.57741C278.124 9.98224 278.053 10.435 278.053 10.9357C278.053 11.4329 278.124 11.8839 278.266 12.2887C278.412 12.6935 278.63 13.0167 278.921 13.2582C279.216 13.4961 279.585 13.6151 280.029 13.6151ZM290.551 11.5589V6.81818H292.479V15H290.609V13.5458H290.524C290.339 14.0039 290.036 14.3786 289.613 14.6697C289.194 14.9609 288.677 15.1065 288.063 15.1065C287.527 15.1065 287.053 14.9876 286.641 14.7496C286.232 14.5082 285.913 14.1584 285.682 13.7003C285.451 13.2386 285.336 12.6811 285.336 12.0277V6.81818H287.264V11.7294C287.264 12.2479 287.406 12.6598 287.69 12.9652C287.974 13.2706 288.347 13.4233 288.809 13.4233C289.093 13.4233 289.368 13.354 289.634 13.2156C289.901 13.0771 290.119 12.8711 290.29 12.5977C290.464 12.3207 290.551 11.9744 290.551 11.5589ZM296.15 10.206V15H294.222V6.81818H296.065V8.20845H296.161C296.349 7.75035 296.649 7.38636 297.061 7.11648C297.476 6.84659 297.989 6.71165 298.6 6.71165C299.165 6.71165 299.657 6.83239 300.076 7.07386C300.498 7.31534 300.825 7.66513 301.056 8.12322C301.29 8.58132 301.406 9.13707 301.402 9.79048V15H299.474V10.0888C299.474 9.5419 299.332 9.11399 299.048 8.80504C298.767 8.49609 298.378 8.34162 297.881 8.34162C297.544 8.34162 297.244 8.41619 296.981 8.56534C296.722 8.71094 296.518 8.92223 296.368 9.19922C296.223 9.47621 296.15 9.81179 296.15 10.206ZM307.208 6.81818V8.30966H302.504V6.81818H307.208ZM303.666 4.85795H305.594V12.5391C305.594 12.7983 305.633 12.9972 305.711 13.1357C305.793 13.2706 305.899 13.3629 306.031 13.4126C306.162 13.4624 306.308 13.4872 306.467 13.4872C306.588 13.4872 306.698 13.4783 306.798 13.4606C306.901 13.4428 306.979 13.4268 307.032 13.4126L307.357 14.9201C307.254 14.9556 307.107 14.9947 306.915 15.0373C306.727 15.0799 306.496 15.1048 306.222 15.1119C305.739 15.1261 305.304 15.0533 304.917 14.8935C304.53 14.7301 304.223 14.478 303.996 14.1371C303.772 13.7962 303.662 13.37 303.666 12.8587V4.85795Z" fill="#0766AD"/>
</svg>
