<svg width="143" height="66" viewBox="0 0 143 66" fill="none" xmlns="http://www.w3.org/2000/svg">
<g filter="url(#filter0_d_1_22)">
<path d="M4 18C4 8.05887 12.0589 0 22 0H121C130.941 0 139 8.05887 139 18V40C139 49.9411 130.941 58 121 58H22C12.0589 58 4 49.9411 4 40V18Z" fill="white"/>
</g>
<path d="M24.0645 38V20.5455H31.2747C32.5815 20.5455 33.7093 20.8011 34.6582 21.3125C35.6128 21.8182 36.3486 22.5256 36.8656 23.4347C37.3826 24.3381 37.6412 25.3892 37.6412 26.5881C37.6412 27.7926 37.377 28.8466 36.8486 29.75C36.3258 30.6477 35.5787 31.3437 34.6071 31.8381C33.6355 32.3324 32.4821 32.5795 31.1468 32.5795H26.698V29.2557H30.3628C30.9991 29.2557 31.5304 29.1449 31.9565 28.9233C32.3883 28.7017 32.715 28.392 32.9366 27.9943C33.1582 27.5909 33.269 27.1222 33.269 26.5881C33.269 26.0483 33.1582 25.5824 32.9366 25.1903C32.715 24.7926 32.3883 24.4858 31.9565 24.2699C31.5247 24.054 30.9934 23.946 30.3628 23.946H28.2832V38H24.0645ZM39.4807 38V24.9091H43.529V27.2955H43.6654C43.904 26.4318 44.2932 25.7898 44.833 25.3693C45.3728 24.9432 46.0006 24.7301 46.7165 24.7301C46.9097 24.7301 47.1086 24.7443 47.3131 24.7727C47.5176 24.7955 47.708 24.8324 47.8841 24.8835V28.5057C47.6853 28.4375 47.4239 28.3835 47.1 28.3438C46.7818 28.304 46.4978 28.2841 46.2478 28.2841C45.7534 28.2841 45.3074 28.3949 44.9097 28.6165C44.5176 28.8324 44.208 29.1364 43.9807 29.5284C43.7591 29.9148 43.6483 30.3693 43.6483 30.892V38H39.4807ZM54.7734 38.2472C53.3984 38.2472 52.2166 37.9659 51.2279 37.4034C50.245 36.8352 49.4865 36.0455 48.9524 35.0341C48.424 34.017 48.1597 32.8381 48.1597 31.4972C48.1597 30.1506 48.424 28.9716 48.9524 27.9602C49.4865 26.9432 50.245 26.1534 51.2279 25.5909C52.2166 25.0227 53.3984 24.7386 54.7734 24.7386C56.1484 24.7386 57.3274 25.0227 58.3103 25.5909C59.299 26.1534 60.0575 26.9432 60.5859 27.9602C61.12 28.9716 61.387 30.1506 61.387 31.4972C61.387 32.8381 61.12 34.017 60.5859 35.0341C60.0575 36.0455 59.299 36.8352 58.3103 37.4034C57.3274 37.9659 56.1484 38.2472 54.7734 38.2472ZM54.799 35.1023C55.299 35.1023 55.7222 34.9489 56.0688 34.642C56.4154 34.3352 56.6796 33.9091 56.8615 33.3636C57.049 32.8182 57.1427 32.1875 57.1427 31.4716C57.1427 30.7443 57.049 30.108 56.8615 29.5625C56.6796 29.017 56.4154 28.5909 56.0688 28.2841C55.7222 27.9773 55.299 27.8239 54.799 27.8239C54.2819 27.8239 53.8444 27.9773 53.4865 28.2841C53.1342 28.5909 52.8643 29.017 52.6768 29.5625C52.495 30.108 52.4041 30.7443 52.4041 31.4716C52.4041 32.1875 52.495 32.8182 52.6768 33.3636C52.8643 33.9091 53.1342 34.3352 53.4865 34.642C53.8444 34.9489 54.2819 35.1023 54.799 35.1023ZM72.7166 25.7784C72.6598 25.1534 72.407 24.6676 71.9581 24.321C71.5149 23.9688 70.8814 23.7926 70.0575 23.7926C69.5121 23.7926 69.0575 23.8636 68.6939 24.0057C68.3303 24.1477 68.0575 24.3438 67.8757 24.5938C67.6939 24.8381 67.6001 25.1193 67.5945 25.4375C67.5831 25.6989 67.6342 25.929 67.7479 26.1278C67.8672 26.3267 68.0376 26.5028 68.2592 26.6562C68.4865 26.804 68.7592 26.9347 69.0774 27.0483C69.3956 27.1619 69.7536 27.2614 70.1513 27.3466L71.6513 27.6875C72.5149 27.875 73.2763 28.125 73.9354 28.4375C74.6001 28.75 75.157 29.1222 75.6058 29.554C76.0604 29.9858 76.4041 30.483 76.6371 31.0455C76.87 31.608 76.9893 32.2386 76.995 32.9375C76.9893 34.0398 76.7109 34.9858 76.1598 35.7756C75.6087 36.5653 74.8161 37.1705 73.782 37.5909C72.7536 38.0114 71.5121 38.2216 70.0575 38.2216C68.5973 38.2216 67.3246 38.0028 66.2393 37.5653C65.1541 37.1278 64.3104 36.4631 63.7081 35.571C63.1058 34.679 62.7962 33.5511 62.7791 32.1875H66.8189C66.853 32.75 67.0036 33.2188 67.2706 33.5938C67.5376 33.9688 67.9041 34.2528 68.37 34.446C68.8416 34.6392 69.3871 34.7358 70.0064 34.7358C70.5746 34.7358 71.0575 34.6591 71.4553 34.5057C71.8587 34.3523 72.1683 34.1392 72.3842 33.8665C72.6001 33.5937 72.7109 33.2812 72.7166 32.929C72.7109 32.5994 72.6087 32.3182 72.4098 32.0852C72.2109 31.8466 71.9041 31.642 71.4893 31.4716C71.0803 31.2955 70.5575 31.1335 69.9212 30.9858L68.0973 30.5597C66.5859 30.2131 65.3956 29.6534 64.5263 28.8807C63.657 28.1023 63.2251 27.0511 63.2308 25.7273C63.2251 24.6477 63.5149 23.7017 64.1001 22.8892C64.6854 22.0767 65.495 21.4432 66.5291 20.9886C67.5632 20.5341 68.7422 20.3068 70.0661 20.3068C71.4183 20.3068 72.5916 20.5369 73.5859 20.9972C74.5859 21.4517 75.3615 22.0909 75.9126 22.9148C76.4638 23.7386 76.745 24.6932 76.7564 25.7784H72.7166ZM85.005 38.2472C83.6357 38.2472 82.4539 37.9773 81.4596 37.4375C80.4709 36.892 79.7096 36.1165 79.1755 35.1108C78.6471 34.0994 78.3829 32.8977 78.3829 31.5057C78.3829 30.1534 78.6499 28.9716 79.184 27.9602C79.7181 26.9432 80.4709 26.1534 81.4425 25.5909C82.4141 25.0227 83.559 24.7386 84.8772 24.7386C85.809 24.7386 86.6613 24.8835 87.434 25.1733C88.2067 25.4631 88.8743 25.892 89.4368 26.4602C89.9993 27.0284 90.4368 27.7301 90.7493 28.5653C91.0618 29.3949 91.2181 30.3466 91.2181 31.4205V32.4602H79.8403V30.0398H87.3403C87.3346 29.5966 87.2295 29.2017 87.0249 28.8551C86.8204 28.5085 86.5391 28.2386 86.1812 28.0455C85.8289 27.8466 85.4226 27.7472 84.9624 27.7472C84.4965 27.7472 84.0789 27.8523 83.7096 28.0625C83.3403 28.267 83.0476 28.5483 82.8317 28.9062C82.6158 29.2585 82.5022 29.6591 82.4908 30.108V32.571C82.4908 33.1051 82.5959 33.5739 82.8062 33.9773C83.0164 34.375 83.3147 34.6847 83.7011 34.9062C84.0874 35.1278 84.5476 35.2386 85.0817 35.2386C85.4511 35.2386 85.7863 35.1875 86.0874 35.0852C86.3886 34.983 86.6471 34.8324 86.863 34.6335C87.0789 34.4347 87.2408 34.1903 87.3488 33.9006L91.1755 34.0114C91.0164 34.8693 90.667 35.6165 90.1272 36.2528C89.5931 36.8835 88.8914 37.375 88.0221 37.7273C87.1528 38.0739 86.1471 38.2472 85.005 38.2472ZM99.226 38.2472C97.8567 38.2472 96.6748 37.9773 95.6805 37.4375C94.6919 36.892 93.9305 36.1165 93.3964 35.1108C92.868 34.0994 92.6038 32.8977 92.6038 31.5057C92.6038 30.1534 92.8709 28.9716 93.4049 27.9602C93.939 26.9432 94.6919 26.1534 95.6635 25.5909C96.6351 25.0227 97.7799 24.7386 99.0981 24.7386C100.03 24.7386 100.882 24.8835 101.655 25.1733C102.428 25.4631 103.095 25.892 103.658 26.4602C104.22 27.0284 104.658 27.7301 104.97 28.5653C105.283 29.3949 105.439 30.3466 105.439 31.4205V32.4602H94.0612V30.0398H101.561C101.556 29.5966 101.45 29.2017 101.246 28.8551C101.041 28.5085 100.76 28.2386 100.402 28.0455C100.05 27.8466 99.6436 27.7472 99.1834 27.7472C98.7174 27.7472 98.2998 27.8523 97.9305 28.0625C97.5612 28.267 97.2686 28.5483 97.0527 28.9062C96.8368 29.2585 96.7231 29.6591 96.7118 30.108V32.571C96.7118 33.1051 96.8169 33.5739 97.0271 33.9773C97.2373 34.375 97.5356 34.6847 97.922 34.9062C98.3084 35.1278 98.7686 35.2386 99.3027 35.2386C99.672 35.2386 100.007 35.1875 100.308 35.0852C100.609 34.983 100.868 34.8324 101.084 34.6335C101.3 34.4347 101.462 34.1903 101.57 33.9006L105.396 34.0114C105.237 34.8693 104.888 35.6165 104.348 36.2528C103.814 36.8835 103.112 37.375 102.243 37.7273C101.374 38.0739 100.368 38.2472 99.226 38.2472ZM111.086 34.5653L111.103 29.5966H111.683L115.365 24.9091H120.086L114.615 31.625H113.515L111.086 34.5653ZM107.328 38V20.5455H111.495V38H107.328ZM115.458 38L112.032 32.5625L114.776 29.6051L120.274 38H115.458Z" fill="#0766AD"/>
<defs>
<filter id="filter0_d_1_22" x="0" y="0" width="143" height="66" filterUnits="userSpaceOnUse" color-interpolation-filters="sRGB">
<feFlood flood-opacity="0" result="BackgroundImageFix"/>
<feColorMatrix in="SourceAlpha" type="matrix" values="0 0 0 0 0 0 0 0 0 0 0 0 0 0 0 0 0 0 127 0" result="hardAlpha"/>
<feOffset dy="4"/>
<feGaussianBlur stdDeviation="2"/>
<feComposite in2="hardAlpha" operator="out"/>
<feColorMatrix type="matrix" values="0 0 0 0 0 0 0 0 0 0 0 0 0 0 0 0 0 0 0.25 0"/>
<feBlend mode="normal" in2="BackgroundImageFix" result="effect1_dropShadow_1_22"/>
<feBlend mode="normal" in="SourceGraphic" in2="effect1_dropShadow_1_22" result="shape"/>
</filter>
</defs>
</svg>
