<svg width="343" height="56" viewBox="0 0 343 56" fill="none" xmlns="http://www.w3.org/2000/svg">
<rect width="343" height="56" rx="28" fill="#0766AD"/>
<rect width="343" height="56" rx="15" fill="#0766AD"/>
<path d="M152.813 25.0352C152.757 24.5079 152.52 24.0974 152.101 23.8036C151.687 23.5098 151.147 23.3629 150.483 23.3629C150.016 23.3629 149.616 23.4334 149.282 23.5742C148.948 23.7151 148.692 23.9062 148.515 24.1477C148.338 24.3892 148.248 24.6649 148.243 24.9748C148.243 25.2324 148.302 25.4557 148.419 25.6449C148.539 25.834 148.702 25.995 148.908 26.1278C149.113 26.2566 149.34 26.3653 149.59 26.4538C149.839 26.5424 150.091 26.6168 150.344 26.6772L151.503 26.967C151.97 27.0756 152.419 27.2225 152.85 27.4077C153.284 27.5928 153.673 27.8262 154.015 28.108C154.361 28.3897 154.635 28.7298 154.836 29.1282C155.037 29.5266 155.138 29.9935 155.138 30.5288C155.138 31.2532 154.953 31.8911 154.582 32.4425C154.212 32.9898 153.677 33.4184 152.976 33.7283C152.28 34.0342 151.437 34.1871 150.447 34.1871C149.485 34.1871 148.65 34.0382 147.942 33.7404C147.237 33.4426 146.686 33.0079 146.288 32.4364C145.893 31.8649 145.68 31.1687 145.648 30.3477H147.851C147.883 30.7783 148.016 31.1365 148.25 31.4222C148.483 31.708 148.787 31.9213 149.161 32.0621C149.539 32.203 149.962 32.2734 150.429 32.2734C150.916 32.2734 151.342 32.201 151.709 32.0561C152.079 31.9072 152.369 31.7019 152.578 31.4403C152.787 31.1747 152.894 30.8648 152.898 30.5107C152.894 30.1887 152.799 29.9231 152.614 29.7138C152.429 29.5005 152.17 29.3234 151.835 29.1825C151.505 29.0376 151.119 28.9089 150.676 28.7962L149.27 28.4339C148.252 28.1723 147.447 27.7759 146.855 27.2447C146.267 26.7094 145.974 25.9991 145.974 25.1136C145.974 24.3852 146.171 23.7473 146.565 23.1999C146.964 22.6526 147.505 22.228 148.189 21.9261C148.873 21.6203 149.648 21.4673 150.513 21.4673C151.391 21.4673 152.159 21.6203 152.819 21.9261C153.484 22.228 154.005 22.6486 154.383 23.1879C154.761 23.7231 154.957 24.3389 154.969 25.0352H152.813ZM156.63 34V24.7273H158.815V34H156.63ZM157.729 23.4112C157.382 23.4112 157.085 23.2965 156.835 23.0671C156.586 22.8337 156.461 22.554 156.461 22.228C156.461 21.898 156.586 21.6183 156.835 21.3888C157.085 21.1554 157.382 21.0387 157.729 21.0387C158.079 21.0387 158.376 21.1554 158.622 21.3888C158.871 21.6183 158.996 21.898 158.996 22.228C158.996 22.554 158.871 22.8337 158.622 23.0671C158.376 23.2965 158.079 23.4112 157.729 23.4112ZM164.687 37.6705C163.902 37.6705 163.228 37.5638 162.665 37.3505C162.101 37.1412 161.648 36.8595 161.306 36.5053C160.964 36.1512 160.727 35.7588 160.594 35.3281L162.562 34.8512C162.651 35.0323 162.779 35.2114 162.948 35.3885C163.117 35.5696 163.345 35.7185 163.631 35.8352C163.92 35.956 164.285 36.0163 164.723 36.0163C165.343 36.0163 165.856 35.8654 166.263 35.5636C166.669 35.2657 166.872 34.7747 166.872 34.0906V32.3338H166.764C166.651 32.5592 166.486 32.7906 166.269 33.0281C166.055 33.2655 165.772 33.4647 165.418 33.6257C165.067 33.7867 164.627 33.8672 164.095 33.8672C163.383 33.8672 162.737 33.7002 162.158 33.3661C161.582 33.0281 161.123 32.525 160.781 31.8569C160.443 31.1848 160.274 30.3436 160.274 29.3335C160.274 28.3152 160.443 27.456 160.781 26.7557C161.123 26.0514 161.584 25.5181 162.164 25.1559C162.743 24.7897 163.389 24.6065 164.101 24.6065C164.645 24.6065 165.092 24.6991 165.442 24.8842C165.796 25.0653 166.078 25.2847 166.287 25.5423C166.496 25.7958 166.655 26.0353 166.764 26.2607H166.885V24.7273H169.04V34.1509C169.04 34.9438 168.851 35.5998 168.472 36.119C168.094 36.6381 167.577 37.0265 166.921 37.2841C166.265 37.5417 165.52 37.6705 164.687 37.6705ZM164.705 32.1527C165.168 32.1527 165.562 32.04 165.888 31.8146C166.214 31.5893 166.462 31.2653 166.631 30.8427C166.8 30.4201 166.885 29.913 166.885 29.3214C166.885 28.7378 166.8 28.2267 166.631 27.788C166.466 27.3493 166.22 27.0092 165.894 26.7678C165.572 26.5223 165.176 26.3995 164.705 26.3995C164.218 26.3995 163.812 26.5263 163.486 26.7798C163.16 27.0334 162.914 27.3815 162.749 27.8242C162.584 28.2629 162.502 28.762 162.502 29.3214C162.502 29.8888 162.584 30.3859 162.749 30.8125C162.918 31.2351 163.166 31.5651 163.492 31.8026C163.822 32.036 164.226 32.1527 164.705 32.1527ZM173.057 28.5668V34H170.871V24.7273H172.96V26.3029H173.069C173.282 25.7837 173.622 25.3712 174.089 25.0653C174.56 24.7595 175.142 24.6065 175.834 24.6065C176.474 24.6065 177.031 24.7434 177.506 25.017C177.985 25.2907 178.355 25.6871 178.617 26.2063C178.882 26.7255 179.013 27.3554 179.009 28.0959V34H176.824V28.4339C176.824 27.8142 176.663 27.3292 176.341 26.979C176.023 26.6289 175.582 26.4538 175.019 26.4538C174.636 26.4538 174.296 26.5384 173.999 26.7074C173.705 26.8724 173.473 27.1119 173.304 27.4258C173.139 27.7397 173.057 28.12 173.057 28.5668ZM186.968 21.6364V34H184.728V21.6364H186.968ZM191.074 28.5668V34H188.889V24.7273H190.977V26.3029H191.086C191.299 25.7837 191.639 25.3712 192.106 25.0653C192.577 24.7595 193.159 24.6065 193.851 24.6065C194.491 24.6065 195.048 24.7434 195.523 25.017C196.002 25.2907 196.372 25.6871 196.634 26.2063C196.9 26.7255 197.03 27.3554 197.026 28.0959V34H194.841V28.4339C194.841 27.8142 194.68 27.3292 194.358 26.979C194.04 26.6289 193.599 26.4538 193.036 26.4538C192.654 26.4538 192.314 26.5384 192.016 26.7074C191.722 26.8724 191.491 27.1119 191.322 27.4258C191.156 27.7397 191.074 28.12 191.074 28.5668Z" fill="white"/>
</svg>
