<svg width="343" height="56" viewBox="0 0 343 56" fill="none" xmlns="http://www.w3.org/2000/svg">
<rect width="343" height="56" rx="15" fill="#9CA5BF"/>
<path d="M148.779 25.0352C148.723 24.5079 148.485 24.0974 148.067 23.8036C147.652 23.5098 147.113 23.3629 146.449 23.3629C145.982 23.3629 145.582 23.4334 145.248 23.5742C144.914 23.7151 144.658 23.9062 144.481 24.1477C144.304 24.3892 144.213 24.6649 144.209 24.9748C144.209 25.2324 144.268 25.4557 144.384 25.6449C144.505 25.834 144.668 25.995 144.873 26.1278C145.079 26.2566 145.306 26.3653 145.556 26.4538C145.805 26.5424 146.057 26.6168 146.31 26.6772L147.469 26.967C147.936 27.0756 148.385 27.2225 148.815 27.4077C149.25 27.5928 149.639 27.8262 149.981 28.108C150.327 28.3897 150.6 28.7298 150.802 29.1282C151.003 29.5266 151.103 29.9935 151.103 30.5288C151.103 31.2532 150.918 31.8911 150.548 32.4425C150.178 32.9898 149.643 33.4184 148.942 33.7283C148.246 34.0342 147.403 34.1871 146.413 34.1871C145.451 34.1871 144.616 34.0382 143.907 33.7404C143.203 33.4426 142.652 33.0079 142.253 32.4364C141.859 31.8649 141.646 31.1687 141.613 30.3477H143.817C143.849 30.7783 143.982 31.1365 144.215 31.4222C144.449 31.708 144.753 31.9213 145.127 32.0621C145.505 32.203 145.928 32.2734 146.395 32.2734C146.882 32.2734 147.308 32.201 147.675 32.0561C148.045 31.9072 148.335 31.7019 148.544 31.4403C148.753 31.1747 148.86 30.8648 148.864 30.5107C148.86 30.1887 148.765 29.9231 148.58 29.7138C148.395 29.5005 148.135 29.3234 147.801 29.1825C147.471 29.0376 147.085 28.9089 146.642 28.7962L145.236 28.4339C144.217 28.1723 143.412 27.7759 142.821 27.2447C142.233 26.7094 141.939 25.9991 141.939 25.1136C141.939 24.3852 142.137 23.7473 142.531 23.1999C142.929 22.6526 143.471 22.228 144.155 21.9261C144.839 21.6203 145.614 21.4673 146.479 21.4673C147.357 21.4673 148.125 21.6203 148.785 21.9261C149.449 22.228 149.971 22.6486 150.349 23.1879C150.727 23.7231 150.922 24.3389 150.934 25.0352H148.779ZM152.596 34V24.7273H154.781V34H152.596ZM153.694 23.4112C153.348 23.4112 153.05 23.2965 152.801 23.0671C152.551 22.8337 152.427 22.554 152.427 22.228C152.427 21.898 152.551 21.6183 152.801 21.3888C153.05 21.1554 153.348 21.0387 153.694 21.0387C154.044 21.0387 154.342 21.1554 154.588 21.3888C154.837 21.6183 154.962 21.898 154.962 22.228C154.962 22.554 154.837 22.8337 154.588 23.0671C154.342 23.2965 154.044 23.4112 153.694 23.4112ZM160.653 37.6705C159.868 37.6705 159.194 37.5638 158.631 37.3505C158.067 37.1412 157.614 36.8595 157.272 36.5053C156.93 36.1512 156.693 35.7588 156.56 35.3281L158.528 34.8512C158.616 35.0323 158.745 35.2114 158.914 35.3885C159.083 35.5696 159.311 35.7185 159.596 35.8352C159.886 35.956 160.25 36.0163 160.689 36.0163C161.309 36.0163 161.822 35.8654 162.229 35.5636C162.635 35.2657 162.838 34.7747 162.838 34.0906V32.3338H162.73C162.617 32.5592 162.452 32.7906 162.235 33.0281C162.021 33.2655 161.738 33.4647 161.383 33.6257C161.033 33.7867 160.593 33.8672 160.061 33.8672C159.349 33.8672 158.703 33.7002 158.123 33.3661C157.548 33.0281 157.089 32.525 156.747 31.8569C156.409 31.1848 156.24 30.3436 156.24 29.3335C156.24 28.3152 156.409 27.456 156.747 26.7557C157.089 26.0514 157.55 25.5181 158.129 25.1559C158.709 24.7897 159.355 24.6065 160.067 24.6065C160.611 24.6065 161.057 24.6991 161.408 24.8842C161.762 25.0653 162.043 25.2847 162.253 25.5423C162.462 25.7958 162.621 26.0353 162.73 26.2607H162.85V24.7273H165.006V34.1509C165.006 34.9438 164.816 35.5998 164.438 36.119C164.06 36.6381 163.543 37.0265 162.887 37.2841C162.231 37.5417 161.486 37.6705 160.653 37.6705ZM160.671 32.1527C161.134 32.1527 161.528 32.04 161.854 31.8146C162.18 31.5893 162.428 31.2653 162.597 30.8427C162.766 30.4201 162.85 29.913 162.85 29.3214C162.85 28.7378 162.766 28.2267 162.597 27.788C162.432 27.3493 162.186 27.0092 161.86 26.7678C161.538 26.5223 161.142 26.3995 160.671 26.3995C160.184 26.3995 159.778 26.5263 159.452 26.7798C159.126 27.0334 158.88 27.3815 158.715 27.8242C158.55 28.2629 158.468 28.762 158.468 29.3214C158.468 29.8888 158.55 30.3859 158.715 30.8125C158.884 31.2351 159.132 31.5651 159.458 31.8026C159.788 32.036 160.192 32.1527 160.671 32.1527ZM169.023 28.5668V34H166.837V24.7273H168.926V26.3029H169.035C169.248 25.7837 169.588 25.3712 170.055 25.0653C170.526 24.7595 171.107 24.6065 171.8 24.6065C172.439 24.6065 172.997 24.7434 173.472 25.017C173.951 25.2907 174.321 25.6871 174.583 26.2063C174.848 26.7255 174.979 27.3554 174.975 28.0959V34H172.79V28.4339C172.79 27.8142 172.629 27.3292 172.307 26.979C171.989 26.6289 171.548 26.4538 170.985 26.4538C170.602 26.4538 170.262 26.5384 169.964 26.7074C169.671 26.8724 169.439 27.1119 169.27 27.4258C169.105 27.7397 169.023 28.12 169.023 28.5668ZM188.488 21.6364H190.727V29.7138C190.727 30.5992 190.518 31.378 190.1 32.0501C189.685 32.7222 189.101 33.2474 188.349 33.6257C187.596 34 186.717 34.1871 185.711 34.1871C184.7 34.1871 183.819 34 183.066 33.6257C182.314 33.2474 181.73 32.7222 181.316 32.0501C180.901 31.378 180.694 30.5992 180.694 29.7138V21.6364H182.934V29.5266C182.934 30.0418 183.046 30.5006 183.272 30.9031C183.501 31.3055 183.823 31.6214 184.238 31.8509C184.652 32.0762 185.143 32.1889 185.711 32.1889C186.278 32.1889 186.769 32.0762 187.184 31.8509C187.602 31.6214 187.924 31.3055 188.15 30.9031C188.375 30.5006 188.488 30.0418 188.488 29.5266V21.6364ZM192.657 37.4773V24.7273H194.806V26.2607H194.933C195.046 26.0353 195.205 25.7958 195.41 25.5423C195.615 25.2847 195.893 25.0653 196.243 24.8842C196.593 24.6991 197.04 24.6065 197.583 24.6065C198.3 24.6065 198.946 24.7897 199.521 25.1559C200.101 25.5181 200.56 26.0554 200.898 26.7678C201.24 27.4761 201.411 28.3454 201.411 29.3757C201.411 30.3939 201.244 31.2592 200.91 31.9716C200.576 32.6839 200.121 33.2273 199.545 33.6016C198.97 33.9759 198.318 34.163 197.589 34.163C197.058 34.163 196.617 34.0745 196.267 33.8974C195.917 33.7203 195.635 33.507 195.422 33.2575C195.213 33.0039 195.05 32.7644 194.933 32.5391H194.843V37.4773H192.657ZM194.8 29.3636C194.8 29.9633 194.885 30.4885 195.054 30.9393C195.227 31.39 195.474 31.7422 195.796 31.9957C196.122 32.2453 196.517 32.37 196.98 32.37C197.463 32.37 197.867 32.2412 198.193 31.9837C198.519 31.7221 198.765 31.3659 198.93 30.9151C199.099 30.4603 199.183 29.9432 199.183 29.3636C199.183 28.7881 199.101 28.277 198.936 27.8303C198.771 27.3835 198.525 27.0334 198.199 26.7798C197.873 26.5263 197.467 26.3995 196.98 26.3995C196.513 26.3995 196.116 26.5223 195.79 26.7678C195.464 27.0133 195.217 27.3574 195.048 27.8001C194.883 28.2428 194.8 28.764 194.8 29.3636Z" fill="white"/>
</svg>
